# xmcd
#
# Track frame offsets: 
#        150
#        19224
#        45058
#        68911
#        91511
#        112411
#        126469
#        150413
#        168599
#        184618
#        200554
#        219771
#        236093
#        253458
#
# Disc length: 3636 seconds
#
# Revision: 2
# Processed by: cddbd v1.5.2PL0 Copyright (c) Steve Scherf et al.
# Submitted via: ExactAudioCopy v0.90b4
#
DISCID=c00e320e
DTITLE=Stockholm Classic Jazz Band - Dream House
DYEAR=2002
DGENRE=Jazz
TTITLE0=My Sweetie Went Away
TTITLE1=Love Nest
TTITLE2=I Hope Gabriel Likes My Music
TTITLE3=Sweet Sue
TTITLE4=Someone's Rockin' My Dream Boat
TTITLE5=Dream Kisses
TTITLE6=Dream A Little Dream Of Me
TTITLE7=Sweetheart Of All My Dreams
TTITLE8=Deep In A Dream
TTITLE9=Dream House
TTITLE10=Dreaming The Hours Away
TTITLE11=Dream Of You
TTITLE12=Beautiful Dreamer
TTITLE13=Girl Of My Dreams
EXTD=YEAR: 2002
EXTT0=
EXTT1=
EXTT2=
EXTT3=
EXTT4=
EXTT5=
EXTT6=
EXTT7=
EXTT8=
EXTT9=
EXTT10=
EXTT11=
EXTT12=
EXTT13=
PLAYORDER=
